<svg xmlns="http://www.w3.org/2000/svg" viewBox="0 0 200 200" width="200" height="200">
  <defs>
    <clipPath id="b">
      <circle cx="100" cy="100" r="90"/>
    </clipPath>
  </defs>
  <g clip-path="url(#b)">
    <path d="M100,100 Q50,50 10,100 A90,90 0 0 1 100,10 Q150,50 100,100Z" fill="#888"/>
    <path d="M100,100 Q150,50 100,10 A90,90 0 0 1 190,100 Q150,150 100,100Z" fill="#FFD700"/>
    <path d="M100,100 Q150,150 190,100 A90,90 0 0 1 100,190 Q50,150 100,100Z" fill="#E84438"/>
    <path d="M100,100 Q50,150 100,190 A90,90 0 0 1 10,100 Q50,50 100,100Z" fill="#00E050"/>
    <g fill="none" stroke="#222" stroke-width="5" stroke-linecap="round">
      <path d="M10,100 Q50,50 100,100"/>
      <path d="M100,10 Q150,50 100,100"/>
      <path d="M190,100 Q150,150 100,100"/>
      <path d="M100,190 Q50,150 100,100"/>
    </g>
  </g>
  <circle cx="100" cy="100" r="90" fill="none" stroke="#222" stroke-width="7"/>
</svg>
