<svg version="1.1" xmlns="http://www.w3.org/2000/svg" style="display: block;" viewBox="0 0 2048 2048" width="2048" height="2048" preserveAspectRatio="none" xmlns:c2pa="http://c2pa.org/manifest"><metadata><c2pa:manifest>AAAMZ2p1bWIAAAAeanVtZGMycGEAEQAQgAAAqgA4m3EDYzJwYQAAAAxBanVtYgAAAEdqdW1kYzJtYQARABCAAACqADibcQN1cm46YzJwYToxN2QyMWM5OC01M2I4LTRhNDUtOThhMy1iOGQwZDI2ZTI1NjcAAAAB4mp1bWIAAAApanVtZGMyYXMAEQAQgAAAqgA4m3EDYzJwYS5hc3NlcnRpb25zAAAAAO1qdW1iAAAAQWp1bWRjYm9yABEAEIAAAKoAOJtxE2MycGEuYWN0aW9ucy52MgAAAAAYYzJzaGk29ExuhCQE154VSSN3a6wAAACkY2JvcqFnYWN0aW9uc4GjZmFjdGlvbmxjMnBhLmNyZWF0ZWRxZGlnaXRhbFNvdXJjZVR5cGV4Rmh0dHA6Ly9jdi5pcHRjLm9yZy9uZXdzY29kZXMvZGlnaXRhbHNvdXJjZXR5cGUvdHJhaW5lZEFsZ29yaXRobWljTWVkaWFrZGVzY3JpcHRpb252Q3JlYXRlZCBieSBSZWNyYWZ0IEFJLgAAAMRqdW1iAAAAQGp1bWRjYm9yABEAEIAAAKoAOJtxE2MycGEuaGFzaC5kYXRhAAAAABhjMnNoNehVmbow8kbFaWKyCiHS2gAAAHxjYm9ypWpleGNsdXNpb25zgaJlc3RhcnQY22ZsZW5ndGgZEIxkbmFtZW5qdW1iZiBtYW5pZmVzdGNhbGdmc2hhMjU2ZGhhc2hYIJb4i7YFauIMC0argw/VoebdDSfSvYbVD7jtu2m89RsVY3BhZEkAAAAAAAAAAAAAAAI0anVtYgAAACdqdW1kYzJjbAARABCAAACqADibcQNjMnBhLmNsYWltLnYyAAAAAgVjYm9ypmppbnN0YW5jZUlEeCx4bXA6aWlkOjU5YjVlYzQzLTUzOTEtNDJhYi1iYTE0LTgwODkxN2JmYzcwY3RjbGFpbV9nZW5lcmF0b3JfaW5mb6NkbmFtZWpyZWNyYWZ0LmFpZ3ZlcnNpb254KDgxY2U4MmUyYzVjM2NiZmJlOGM2ZmJlMTc5ZDVmOGQ5MWM0MDljZTF3b3JnLmNvbnRlbnRhdXRoLmMycGFfcnNmMC45MC43aXNpZ25hdHVyZXhNc2VsZiNqdW1iZj0vYzJwYS91cm46YzJwYToxN2QyMWM5OC01M2I4LTRhNDUtOThhMy1iOGQwZDI2ZTI1NjcvYzJwYS5zaWduYXR1cmVyY3JlYXRlZF9hc3NlcnRpb25zgqJjdXJseCpzZWxmI2p1bWJmPWMycGEuYXNzZXJ0aW9ucy9jMnBhLmFjdGlvbnMudjJkaGFzaFggF2iRmfW+418PWnE4Rv/xzronueMZhJXqY0pT22vE4hiiY3VybHgpc2VsZiNqdW1iZj1jMnBhLmFzc2VydGlvbnMvYzJwYS5oYXNoLmRhdGFkaGFzaFggdAatZuR/mZsiPvQzXaM46cfga1sbb3KJzzgDOTuqSHNoZGM6dGl0bGV4GlJlY3JhZnQgQUkgR2VuZXJhdGVkIEltYWdlY2FsZ2ZzaGEyNTYAAAfcanVtYgAAAChqdW1kYzJjcwARABCAAACqADibcQNjMnBhLnNpZ25hdHVyZQAAAAesY2JvctKEWQOwogEmGCGCWQHnMIIB4zCCAYmgAwIBAgIJALfeWmNDUW56MAoGCCqGSM49BAMCMEAxHzAdBgNVBAMMFlJlY3JhZnQgU3RhZ2luZyBEZXYgQ0ExEDAOBgNVBAoMB1JlY3JhZnQxCzAJBgNVBAYTAlVTMB4XDTI2MDYxMjE5NDM1MFoXDTI3MDYxMjE5NDM1MFowNzELMAkGA1UEBhMCVVMxEzARBgNVBAoTClJlY3JhZnQgQUkxEzARBgNVBAMTCnJlY3JhZnQuYWkwWTATBgcqhkjOPQIBBggqhkjOPQMBBwNCAARKaTVbACsg/DeG3LeOxYdID/VA6EFG73E6Oknb+KIiCFJygRUz4ueN2z/t2qYb6CIUvS8RvgOiiClfoqsYtw81o3UwczAMBgNVHRMBAf8EAjAAMA4GA1UdDwEB/wQEAwIGwDATBgNVHSUEDDAKBggrBgEFBQcDBDAdBgNVHQ4EFgQULzHpBen96SL1y4IPHa8MkMshXf0wHwYDVR0jBBgwFoAUAgsqOBrKqpdK//m/kxZo7ZR4ebcwCgYIKoZIzj0EAwIDSAAwRQIgU8hKW0aXvvk8SQgVFNkax69Ym9ae8GsT2RZTQw+B51ACIQC0D4BkEoRD4N0r2ZRkNy0HZaW3WICy/QZGN95ilF4yzFkBvTCCAbkwggFfoAMCAQICCQCc+Wg7T6ATbzAKBggqhkjOPQQDAjBAMR8wHQYDVQQDDBZSZWNyYWZ0IFN0YWdpbmcgRGV2IENBMRAwDgYDVQQKDAdSZWNyYWZ0MQswCQYDVQQGEwJVUzAeFw0yNjA2MTIxOTQwMTZaFw0yODA2MTExOTQwMTZaMEAxHzAdBgNVBAMMFlJlY3JhZnQgU3RhZ2luZyBEZXYgQ0ExEDAOBgNVBAoMB1JlY3JhZnQxCzAJBgNVBAYTAlVTMFkwEwYHKoZIzj0CAQYIKoZIzj0DAQcDQgAEQ9IQBlcVbKaKPYrQSfOhL/00s7xUDC7RinIuLO/I1k99y9yh6oWF9kPxaP+tx1v1PeOL3yrVquJ730H0ZGiDyqNCMEAwDwYDVR0TAQH/BAUwAwEB/zAOBgNVHQ8BAf8EBAMCAYYwHQYDVR0OBBYEFAILKjgayqqXSv/5v5MWaO2UeHm3MAoGCCqGSM49BAMCA0gAMEUCIFQwNImLlYDeQhjgF+ZiqTbgcuzSqmOJw3Q2lQ/hu83FAiEA9O8cLm/xfoVLqB4jtdbuHzi3WL+p2RN+DRGkwpYswVuhY3BhZFkDpAAAAAAAAAAAAAAAAAAAAAAAAAAAAAAAAAAAAAAAAAAAAAAAAAAAAAAAAAAAAAAAAAAAAAAAAAAAAAAAAAAAAAAAAAAAAAAAAAAAAAAAAAAAAAAAAAAAAAAAAAAAAAAAAAAAAAAAAAAAAAAAAAAAAAAAAAAAAAAAAAAAAAAAAAAAAAAAAAAAAAAAAAAAAAAAAAAAAAAAAAAAAAAAAAAAAAAAAAAAAAAAAAAAAAAAAAAAAAAAAAAAAAAAAAAAAAAAAAAAAAAAAAAAAAAAAAAAAAAAAAAAAAAAAAAAAAAAAAAAAAAAAAAAAAAAAAAAAAAAAAAAAAAAAAAAAAAAAAAAAAAAAAAAAAAAAAAAAAAAAAAAAAAAAAAAAAAAAAAAAAAAAAAAAAAAAAAAAAAAAAAAAAAAAAAAAAAAAAAAAAAAAAAAAAAAAAAAAAAAAAAAAAAAAAAAAAAAAAAAAAAAAAAAAAAAAAAAAAAAAAAAAAAAAAAAAAAAAAAAAAAAAAAAAAAAAAAAAAAAAAAAAAAAAAAAAAAAAAAAAAAAAAAAAAAAAAAAAAAAAAAAAAAAAAAAAAAAAAAAAAAAAAAAAAAAAAAAAAAAAAAAAAAAAAAAAAAAAAAAAAAAAAAAAAAAAAAAAAAAAAAAAAAAAAAAAAAAAAAAAAAAAAAAAAAAAAAAAAAAAAAAAAAAAAAAAAAAAAAAAAAAAAAAAAAAAAAAAAAAAAAAAAAAAAAAAAAAAAAAAAAAAAAAAAAAAAAAAAAAAAAAAAAAAAAAAAAAAAAAAAAAAAAAAAAAAAAAAAAAAAAAAAAAAAAAAAAAAAAAAAAAAAAAAAAAAAAAAAAAAAAAAAAAAAAAAAAAAAAAAAAAAAAAAAAAAAAAAAAAAAAAAAAAAAAAAAAAAAAAAAAAAAAAAAAAAAAAAAAAAAAAAAAAAAAAAAAAAAAAAAAAAAAAAAAAAAAAAAAAAAAAAAAAAAAAAAAAAAAAAAAAAAAAAAAAAAAAAAAAAAAAAAAAAAAAAAAAAAAAAAAAAAAAAAAAAAAAAAAAAAAAAAAAAAAAAAAAAAAAAAAAAAAAAAAAAAAAAAAAAAAAAAAAAAAAAAAAAAAAAAAAAAAAAAAAAAAAAAAAAAAAAAAAAAAAAAAAAAAAAAAAAAAAAAAAAAAAAAAAAAAAAAAAAAAAAAAAAAAAAAAAAAAAAAAAAAAAAAAAAAAAAAAAAAAAAAAAAAAAAAAAAAAAAAAAAAAAAAAAAAAA9lhAxpsfVzv5CnnnV3uOP8eDa9f7Z66vIJxakHN1LzcWapTKs5DBttUMi53CHqqULWnrGquflxeeG5MGxAYft5Hv7g==</c2pa:manifest></metadata>
<path transform="translate(0,0)" fill="rgb(241,235,223)" d="M 0 0 L 2048 0 L 2048 2048 L 0 2048 L 0 0 z"/>
<path transform="translate(0,0)" fill="rgb(11,14,18)" d="M 1056.38 453.911 C 1077.1 454.351 1102.25 458.063 1122.6 461.604 C 1222.03 478.894 1304.59 519.657 1382.99 582.171 C 1323.2 661.775 1283.73 777.311 1265.84 874.221 C 1258.75 916.586 1255.62 948.546 1252.87 991.177 L 1056.8 991.085 L 1056.81 627.258 C 1057.11 569.476 1056.97 511.691 1056.38 453.911 z"/>
<path transform="translate(0,0)" fill="rgb(11,14,18)" d="M 1056.82 1057.77 L 1252.96 1057.75 C 1256.95 1168.28 1285.83 1290.89 1336.67 1389.13 C 1350.36 1415.58 1366.38 1440.25 1382.6 1465.16 C 1360.3 1484.04 1331.57 1502.91 1306.74 1518.07 C 1222.77 1566.89 1152.35 1586 1056.82 1594.19 L 1056.82 1057.77 z"/>
<path transform="translate(0,0)" fill="rgb(11,14,18)" d="M 796.221 1057.63 C 860.813 1056.98 926.64 1057.58 991.31 1057.63 L 991.278 1594.08 C 986.063 1593.48 980.842 1593.05 975.608 1592.68 C 942.931 1590.38 911.424 1583.99 879.647 1576.33 C 799.394 1554.73 730.392 1517.15 666.341 1464.83 C 748.685 1346.13 791.128 1201.41 796.221 1057.63 z"/>
<path transform="translate(0,0)" fill="rgb(11,14,18)" d="M 984.345 454.429 C 987.497 454.117 987.387 454.084 990.477 454.719 C 992.947 461.437 991.299 575.867 991.29 593.459 L 991.236 991.178 L 796.184 991.084 C 795.727 954.834 790.972 917.025 785.433 881.244 C 767.893 781.094 728.903 664.219 667.368 581.939 C 761.312 506.921 863.302 462.081 984.345 454.429 z"/>
<path transform="translate(0,0)" fill="rgb(11,14,18)" d="M 618.561 624.727 C 628.212 635.834 646.021 667.304 652.912 680.512 C 702.424 776.772 729.715 882.911 732.775 991.114 L 572.5 991.14 L 457.141 991.11 C 468.092 842.939 518.508 734.123 618.561 624.727 z"/>
<path transform="translate(0,0)" fill="rgb(11,14,18)" d="M 1429.64 625.146 C 1439.68 631.856 1468.12 667.979 1476.52 679.03 C 1547.71 772.611 1583.12 874.391 1591.9 991.17 L 1479.5 991.123 L 1316.18 991.102 C 1321.56 889.89 1342.32 795.017 1385.58 702.894 C 1397.48 677.554 1413.32 647.916 1429.64 625.146 z"/>
<path transform="translate(0,0)" fill="rgb(11,14,18)" d="M 556.196 1057.49 L 732.549 1057.67 C 732.503 1078.88 729.931 1104.24 727.319 1125.3 C 715.634 1226.01 681.445 1322.8 627.284 1408.51 L 617.743 1422.38 C 524.529 1326.29 462.504 1192.02 457.478 1057.64 L 556.196 1057.49 z"/>
<path transform="translate(0,0)" fill="rgb(11,14,18)" d="M 1397.82 1057.51 L 1591.63 1057.69 C 1584.97 1175.03 1542.06 1287.41 1468.83 1379.33 C 1456.4 1395.1 1444.34 1408.26 1430.81 1423.01 C 1359.82 1314.09 1320.35 1187.66 1316.77 1057.7 L 1397.82 1057.51 z"/>
</svg>